<svg xmlns="http://www.w3.org/2000/svg" viewBox="0 0 32 32" shape-rendering="crispEdges">
  <rect width="32" height="32" rx="6" ry="6" fill="#0a0a0a"/>
  <rect x="6"  y="5" width="4" height="4" fill="#7f1d1d"/>
  <rect x="22" y="5" width="4" height="4" fill="#7f1d1d"/>
  <rect x="7"  y="6" width="2" height="2" fill="#dc2626"/>
  <rect x="23" y="6" width="2" height="2" fill="#dc2626"/>
  <rect x="7"  y="9"  width="18" height="14" fill="#a1a1aa"/>
  <rect x="6"  y="11" width="20" height="10" fill="#a1a1aa"/>
  <rect x="10" y="13" width="3" height="3" fill="#0a0a0a"/>
  <rect x="19" y="13" width="3" height="3" fill="#0a0a0a"/>
  <rect x="15" y="18" width="2" height="2" fill="#dc2626"/>
  <rect x="3"  y="18" width="3" height="1" fill="#71717a"/>
  <rect x="3"  y="20" width="3" height="1" fill="#71717a"/>
  <rect x="26" y="18" width="3" height="1" fill="#71717a"/>
  <rect x="26" y="20" width="3" height="1" fill="#71717a"/>
  <rect x="14" y="20" width="1" height="2" fill="#f5f5f4"/>
  <rect x="17" y="20" width="1" height="2" fill="#f5f5f4"/>
</svg>
